<?xml version="1.0" standalone="no"?>
<!DOCTYPE svg PUBLIC "-//W3C//DTD SVG 20010904//EN"
 "http://www.w3.org/TR/2001/REC-SVG-20010904/DTD/svg10.dtd">
<svg version="1.0" xmlns="http://www.w3.org/2000/svg"
 width="4961.000000pt" height="4961.000000pt" viewBox="0 0 4961.000000 4961.000000"
 preserveAspectRatio="xMidYMid meet">
<metadata>
Created by potrace 1.11, written by Peter Selinger 2001-2013
</metadata>
<g transform="translate(0.000000,4961.000000) scale(0.100000,-0.100000)"
fill="#000000" stroke="none">
<path d="M27960 33673 c-953 -15 -2098 -163 -3115 -403 -2352 -556 -4570
-1665 -6315 -3159 -372 -319 -937 -868 -1215 -1181 -868 -980 -1475 -1954
-1879 -3019 -368 -967 -529 -2051 -441 -2966 126 -1322 640 -2455 1553 -3429
1210 -1290 3073 -2150 5257 -2425 584 -74 921 -92 1560 -85 865 9 1211 34
2010 145 258 35 288 43 320 81 33 39 36 54 95 428 28 179 121 746 206 1260
196 1185 195 1180 183 1224 -22 79 -62 81 -350 22 -443 -92 -788 -139 -1299
-178 -224 -17 -1082 -17 -1300 0 -1443 113 -2643 496 -3650 1165 -1195 794
-1937 1924 -2119 3227 -85 609 -56 1141 94 1765 324 1344 1222 2667 2518 3708
1478 1187 3317 1945 5287 2177 900 107 1858 83 2700 -66 944 -167 1713 -446
2495 -905 105 -62 208 -117 230 -124 33 -10 57 -9 140 5 202 36 3241 700 3325
727 31 10 58 26 67 40 15 22 14 26 -4 51 -44 61 -525 397 -828 579 -1058 635
-2339 1060 -3735 1237 -557 71 -1225 108 -1790 99z"/>
<path d="M22730 33075 c-30 -7 -865 -233 -1855 -504 -5157 -1411 -9060 -2478
-9225 -2523 -221 -60 -262 -80 -212 -107 20 -11 239 28 1822 323 547 102 1708
316 2580 476 872 160 1887 347 2255 415 369 68 832 154 1030 189 198 36 393
75 432 86 121 34 241 91 402 194 740 472 1739 975 2615 1317 93 37 151 65 179
89 53 47 47 59 -23 45z"/>
<path d="M42995 32638 c-27 -5 -340 -65 -695 -134 -1222 -237 -2015 -394
-2067 -409 -67 -20 -107 -55 -127 -108 -15 -41 -144 -809 -188 -1121 -29 -209
-20 -236 80 -236 31 0 215 32 407 70 193 39 369 70 391 70 57 0 85 -24 91 -81
3 -26 -8 -128 -26 -244 -150 -975 -601 -4066 -601 -4124 0 -40 4 -53 22 -65
12 -9 32 -16 43 -16 11 0 217 39 459 86 411 81 441 89 472 116 18 16 37 43 43
61 5 18 42 250 81 517 259 1766 572 3861 582 3893 20 65 108 127 181 127 40 0
392 82 445 103 156 64 295 194 402 377 97 166 140 313 194 667 20 125 41 255
47 287 12 64 6 118 -17 154 -13 20 -22 22 -92 21 -42 -1 -99 -5 -127 -11z"/>
<path d="M38925 31844 c-401 -79 -921 -181 -1155 -225 -268 -51 -454 -92 -504
-110 -165 -60 -316 -183 -459 -374 -76 -102 -197 -332 -252 -479 -83 -225 -72
-154 -501 -3051 -300 -2028 -313 -2114 -307 -2155 3 -19 15 -46 27 -59 39 -43
-32 -56 1961 335 380 74 767 150 862 168 95 19 187 42 205 53 57 33 87 88 103
188 95 570 185 1144 185 1176 0 30 -7 47 -26 66 -23 23 -31 25 -77 19 -60 -7
-747 -138 -1375 -262 -463 -92 -488 -94 -519 -48 -26 40 -12 241 37 549 24
152 46 207 86 223 34 14 509 108 1299 256 308 58 575 110 594 116 48 13 78 36
96 69 8 16 40 184 70 372 31 189 76 458 101 597 61 351 59 396 -22 422 -44 15
-40 16 -524 -80 -217 -43 -613 -120 -879 -171 -441 -84 -486 -91 -509 -78 -14
8 -29 25 -32 39 -9 32 24 361 45 455 38 170 110 257 265 316 44 16 930 192
1480 294 212 39 266 55 309 90 42 36 59 86 86 260 13 88 49 303 79 477 109
634 111 664 44 687 -17 6 -38 11 -47 10 -9 0 -344 -65 -746 -145z"/>
<path d="M25945 31769 c-1083 -67 -2123 -295 -3101 -679 -1355 -533 -2495
-1299 -3397 -2284 -451 -491 -785 -972 -1057 -1521 -461 -932 -635 -1852 -520
-2753 166 -1290 891 -2387 2100 -3174 225 -147 566 -331 669 -362 50 -15 55
-15 67 1 18 25 6 44 -106 158 -764 785 -1269 1772 -1419 2775 -34 231 -44 376
-44 650 1 1062 336 2020 1027 2937 934 1241 2511 2215 4306 2658 566 140 1215
238 1815 275 208 13 825 13 1130 0 538 -23 1216 -117 1779 -246 165 -37 222
-42 269 -19 18 8 77 63 133 122 131 140 236 214 462 325 143 71 183 95 188
113 7 29 -8 58 -46 85 -70 50 -689 352 -855 418 -674 265 -1369 427 -2180 508
-187 19 -993 28 -1220 13z"/>
<path d="M35390 31153 c-14 -2 -205 -40 -425 -83 -220 -43 -650 -126 -955
-185 -825 -157 -792 -148 -831 -211 -31 -51 -46 -140 -199 -1169 -195 -1318
-292 -1957 -510 -3390 -104 -682 -192 -1270 -196 -1307 -6 -62 -5 -68 19 -92
20 -20 36 -26 69 -26 24 0 238 39 477 87 404 81 437 89 467 115 18 16 37 43
43 61 13 41 39 210 205 1337 75 503 200 1354 280 1890 79 536 149 1016 156
1065 18 139 38 187 92 216 32 17 404 91 468 92 153 3 239 -76 289 -268 29
-108 35 -191 22 -266 -6 -35 -58 -390 -115 -789 -58 -399 -177 -1224 -266
-1834 -98 -684 -160 -1140 -160 -1188 0 -94 16 -118 80 -118 56 0 877 158 923
177 46 20 73 52 87 102 5 20 39 239 74 486 75 521 210 1438 361 2450 146 982
199 1342 236 1615 30 224 31 241 20 355 -26 261 -72 412 -171 562 -146 222
-359 347 -540 316z"/>
<path d="M31840 30465 c-459 -90 -984 -193 -1166 -229 -420 -82 -488 -109
-637 -254 -244 -238 -419 -561 -496 -913 -33 -154 -84 -470 -180 -1124 -50
-335 -133 -902 -186 -1260 -53 -357 -159 -1070 -235 -1584 -77 -513 -140 -953
-140 -977 0 -87 39 -121 126 -109 67 9 658 121 767 146 139 31 165 50 192 144
8 28 49 262 90 520 42 259 91 558 110 665 18 107 43 253 54 325 24 146 45 191
105 219 43 20 709 156 778 159 62 3 73 -10 70 -81 -1 -31 -49 -342 -107 -689
-146 -881 -153 -945 -115 -983 35 -35 124 -27 515 50 520 102 508 99 540 161
10 18 44 219 85 497 82 553 47 323 426 2802 368 2408 387 2542 380 2599 -9 64
-28 81 -90 80 -28 0 -427 -74 -886 -164z m-390 -1545 c11 -11 20 -33 20 -49 0
-65 -112 -707 -128 -736 -10 -16 -33 -37 -52 -47 -37 -17 -747 -158 -798 -158
-16 0 -40 8 -52 18 l-23 19 22 149 c48 317 68 403 112 494 52 105 126 183 190
200 91 25 616 129 652 130 24 0 44 -7 57 -20z"/>
<path d="M27165 29549 c-353 -65 -800 -153 -838 -165 -57 -19 -103 -62 -117
-112 -6 -20 -55 -341 -110 -712 -55 -371 -203 -1377 -330 -2235 -127 -858
-235 -1598 -241 -1644 -6 -48 -9 -182 -7 -310 4 -211 6 -232 32 -316 155 -511
635 -653 1571 -464 287 58 1236 308 1273 336 55 41 72 90 108 321 19 119 64
396 100 614 62 371 65 400 53 440 -12 37 -20 45 -52 56 -48 15 9 24 -797 -133
-355 -69 -675 -128 -711 -132 -96 -8 -158 9 -218 63 -56 50 -82 104 -107 222
-16 74 -16 100 -6 255 6 95 25 260 42 367 39 249 184 1236 356 2430 143 999
152 1086 112 1114 -25 18 -39 18 -113 5z"/>
<path d="M24765 29083 c-41 -6 -562 -107 -1440 -279 -540 -106 -750 -151 -778
-167 -22 -12 -47 -38 -58 -58 -21 -43 -17 -18 -248 -1444 -228 -1404 -306
-1883 -536 -3277 -102 -619 -185 -1145 -185 -1168 0 -52 12 -74 48 -89 34 -14
49 -12 562 88 195 38 384 75 420 81 79 14 141 48 169 94 18 28 47 188 151 821
71 432 150 916 175 1076 46 296 59 343 108 390 45 43 48 44 1057 239 146 28
290 58 320 67 380 109 673 424 880 943 162 406 311 1023 344 1420 12 149 12
181 -5 345 -22 217 -54 348 -113 470 -114 234 -291 393 -488 440 -59 14 -303
19 -383 8z m-297 -1467 c59 -31 87 -77 102 -169 8 -52 7 -81 -5 -139 -58 -280
-193 -479 -361 -532 -83 -26 -784 -158 -809 -152 -12 3 -25 15 -28 25 -4 18
64 483 97 664 17 87 41 128 86 147 49 20 780 168 838 169 29 1 65 -5 80 -13z"/>
<path d="M37125 24523 c-115 -26 -672 -137 -1245 -248 -388 -75 -732 -143
-765 -151 -77 -20 -110 -45 -129 -97 -8 -23 -72 -415 -141 -872 -222 -1475
-451 -2988 -595 -3931 -77 -507 -140 -945 -140 -973 0 -43 5 -57 26 -78 24
-24 30 -25 97 -20 101 8 855 164 884 183 63 40 55 0 248 1329 231 1599 446
3040 460 3092 18 60 55 97 118 114 226 61 453 85 531 55 90 -34 146 -125 180
-289 23 -111 21 -146 -34 -505 -119 -788 -487 -3348 -496 -3460 -6 -77 -6 -81
19 -106 19 -19 37 -26 63 -26 51 0 857 157 905 177 49 19 75 52 94 117 8 28
71 440 140 916 148 1017 393 2673 471 3185 78 511 87 758 33 974 -76 304 -278
547 -506 606 -54 14 -173 18 -218 8z"/>
<path d="M34475 24003 c-27 -6 -1581 -309 -1940 -378 -323 -62 -393 -81 -480
-130 -262 -146 -527 -561 -635 -994 -42 -168 -61 -285 -260 -1641 -98 -674
-245 -1664 -325 -2200 -81 -536 -149 -1009 -152 -1052 -6 -73 -5 -77 21 -103
26 -26 31 -27 89 -21 80 9 767 141 830 160 94 28 117 57 142 174 7 37 48 284
90 548 130 822 162 1001 187 1047 31 57 83 82 200 101 54 9 209 38 346 66 137
27 267 50 289 50 47 0 73 -20 73 -55 0 -12 -41 -269 -90 -570 -177 -1075 -176
-1064 -131 -1109 18 -17 33 -21 79 -20 75 2 856 159 901 182 20 9 44 31 54 49
13 23 79 438 257 1610 131 868 275 1817 320 2108 217 1424 300 1993 300 2066
0 72 -2 79 -26 98 -26 20 -85 26 -139 14z m-1180 -1678 c14 -13 25 -31 25 -40
0 -28 -99 -638 -110 -677 -15 -52 -53 -94 -103 -112 -23 -8 -196 -45 -384 -82
-370 -72 -404 -74 -425 -28 -13 28 10 205 58 444 38 189 117 331 211 376 35
16 627 141 681 143 13 1 34 -10 47 -24z"/>
<path d="M29700 23074 c-458 -89 -1120 -217 -1390 -269 -184 -36 -352 -72
-373 -82 -42 -18 -93 -70 -109 -112 -5 -14 -16 -71 -24 -126 -7 -55 -108 -676
-224 -1380 -314 -1908 -510 -3104 -594 -3630 -42 -258 -80 -494 -86 -524 -5
-30 -10 -80 -10 -112 0 -50 3 -60 26 -78 32 -25 74 -27 169 -6 39 9 219 44
400 80 182 35 713 138 1181 229 467 91 875 174 905 185 130 44 239 119 341
233 323 361 578 1012 717 1828 55 324 93 720 94 995 0 196 -37 509 -80 654
-54 188 -151 320 -290 395 -40 22 -73 47 -76 57 -3 11 8 79 24 152 46 202 78
398 91 550 41 478 -118 885 -377 963 -61 18 -215 17 -315 -2z m-321 -1455 c52
-18 65 -56 69 -199 6 -210 -47 -405 -125 -456 -23 -15 -98 -34 -245 -63 -297
-57 -299 -58 -322 -32 -13 14 -19 34 -18 62 4 96 64 454 88 521 30 85 57 98
289 147 153 32 215 37 264 20z m26 -2055 c64 -30 85 -118 60 -251 -45 -245
-126 -409 -272 -551 -97 -95 -192 -141 -358 -176 -235 -48 -416 -78 -441 -72
-41 11 -47 45 -29 175 25 181 94 592 107 631 33 102 51 110 410 179 167 32
326 63 353 69 76 15 133 14 170 -4z"/>
<path d="M14930 20224 c-135 -30 -666 -149 -1180 -265 -514 -115 -1736 -388
-2715 -605 -979 -217 -1816 -407 -1860 -422 -63 -22 -80 -32 -80 -47 0 -31 55
-36 200 -20 72 8 243 21 380 30 138 8 295 20 350 25 227 22 1077 91 1300 105
252 16 407 29 540 45 44 5 163 14 265 20 102 6 280 20 395 30 318 30 666 57
1005 80 168 11 622 47 1010 80 388 33 824 69 970 80 321 24 326 25 356 55 l25
25 -21 40 c-11 22 -100 147 -198 277 -98 131 -214 289 -257 351 -102 147 -131
172 -193 171 -26 0 -157 -25 -292 -55z"/>
<path d="M15850 19240 c-115 -29 -604 -142 -2580 -595 -998 -229 -1853 -425
-1900 -436 -47 -11 -107 -30 -135 -43 l-50 -24 30 -11 c55 -23 150 -23 460 -2
171 11 495 30 720 41 526 26 675 34 1106 65 367 25 685 44 1214 70 171 9 432
24 580 35 337 24 714 46 1000 60 284 13 543 38 573 56 47 30 24 71 -93 162
-154 119 -313 260 -492 438 -142 141 -181 175 -220 188 -60 20 -119 19 -213
-4z"/>
<path d="M17170 18194 c-30 -8 -332 -70 -670 -138 -338 -69 -1369 -279 -2290
-466 -2083 -424 -4190 -851 -6915 -1400 -650 -131 -915 -192 -915 -210 0 -16
64 -30 134 -30 93 0 760 52 1471 115 33 3 179 12 325 20 146 9 328 22 405 30
77 8 246 22 375 30 129 8 305 22 390 30 314 29 645 55 1020 80 212 14 648 48
970 75 729 61 797 66 1105 85 138 8 313 22 390 30 77 8 246 22 375 30 129 8
282 20 340 25 145 13 852 67 980 75 168 10 345 24 485 40 72 8 184 17 250 20
66 3 244 17 395 30 416 37 610 52 1020 80 206 14 506 37 665 50 883 76 1154
97 1690 135 325 23 608 47 630 53 43 13 58 44 35 72 -6 8 -143 57 -303 111
-578 192 -891 319 -1337 545 -241 121 -435 230 -656 369 -222 139 -241 145
-364 114z"/>
</g>
</svg>
